<?xml version="1.0" standalone="no"?><!DOCTYPE svg PUBLIC "-//W3C//DTD SVG 1.1//EN" "http://www.w3.org/Graphics/SVG/1.1/DTD/svg11.dtd"><svg t="1777453146830" class="icon" viewBox="0 0 1024 1024" version="1.1" xmlns="http://www.w3.org/2000/svg" p-id="5307" width="200" height="200" xmlns:xlink="http://www.w3.org/1999/xlink"><path d="M262.336 94.016A1769.856 1769.856 0 0 1 255.68 64c0-0.192 3.2 0.064 7.04 0.64a234.624 234.624 0 0 1 39.936 11.264c4.032 1.92 6.592 1.92 19.968-0.32 11.456-1.92 21.44-2.432 38.72-1.792 15.36 0.576 27.52 1.92 35.712 4.032 6.912 1.792 18.496 5.504 25.792 8.32 7.36 2.816 17.792 7.68 23.296 10.944 5.504 3.264 13.376 8.32 17.472 11.328 4.16 3.008 13.376 11.072 20.48 17.92 7.168 6.848 16.896 17.92 21.568 24.512a220.864 220.864 0 0 1 24.448 47.68c1.088 3.52 11.456 58.496 23.04 122.24 11.584 63.616 21.504 116.096 21.952 116.608 0.448 0.576 21.76 4.928 47.36 9.664 35.328 6.656 49.792 10.048 59.712 14.144 7.232 3.008 13.44 6.016 13.76 6.656 0.32 0.64 1.536 1.28 2.624 1.28 1.152 0 3.2-1.728 4.608-3.84a85.504 85.504 0 0 1 21.632-22.784c4.096-2.88 11.008-7.168 15.36-9.536 4.352-2.368 12.224-5.504 17.472-7.04 6.464-1.856 15.232-2.688 27.072-2.688 14.592 0 19.456 0.768 29.888 4.416 6.912 2.368 17.28 7.424 23.168 11.136 5.888 3.84 13.888 10.496 17.92 14.976 3.968 4.416 9.792 12.8 12.864 18.56 3.136 5.76 6.784 14.848 8.192 20.16 1.344 5.376 3.008 14.784 3.648 20.992 0.576 6.272 2.112 15.36 3.328 20.224 1.28 4.864 3.904 12.544 5.888 16.96 1.984 4.48 7.04 13.12 11.328 19.264 4.224 6.144 12.032 14.912 27.072 27.52l-8.896 5.632a90.368 90.368 0 0 1-18.432 8.512c-5.952 1.792-14.72 2.88-23.232 2.816-9.984 0-16.704-1.024-24.576-3.712a95.104 95.104 0 0 1-18.304-8.704 99.904 99.904 0 0 1-13.504-11.2 97.28 97.28 0 0 1-10.432-13.056 110.976 110.976 0 0 1-8.704-21.824 178.048 178.048 0 0 0-8.704-23.68 78.592 78.592 0 0 0-11.84-16.384 91.392 91.392 0 0 0-15.808-12.544 92.416 92.416 0 0 0-17.472-7.424 78.016 78.016 0 0 0-21.632-2.56l6.656 10.112c3.584 5.568 8.448 15.168 10.752 21.376 2.24 6.208 4.928 17.472 5.952 25.024 1.344 10.24 1.28 17.024-0.128 26.688a141.44 141.44 0 0 1-4.928 20.992c-1.536 4.48-4.8 11.712-7.04 16.128-2.368 4.48-7.36 12.16-11.2 16.96a170.88 170.88 0 0 0-14.208 23.424 105.856 105.856 0 0 0-11.968 58.176c0.768 14.016 2.56 21.568 13.696 57.344 7.04 22.656 13.12 41.92 13.44 42.816 0.384 0.896-2.56 2.944-6.4 4.608a592.192 592.192 0 0 1-73.6 25.088c-13.76 3.648-25.536 6.08-26.176 5.44a234.88 234.88 0 0 1-9.28-19.008 3529.088 3529.088 0 0 0-21.696-46.848l-13.632-29.888c-3.008-6.656-8.32-18.112-11.84-25.408a129.088 129.088 0 0 1-6.4-14.528c0-0.64 5.44-2.56 12.032-4.096 6.72-1.6 17.024-5.696 23.296-9.28 6.144-3.52 11.776-7.296 12.48-8.32 0.96-1.472-1.856-1.664-11.264-0.768-7.04 0.64-17.664 0.448-24.512-0.512-7.552-1.024-32.192-8.576-65.728-20.096-29.44-10.112-62.976-21.696-95.232-32.96l-51.072 31.744c-28.096 17.472-51.072 32.64-51.136 33.792 0 1.088 5.12 20.16 11.52 42.368 8.896 30.592 11.712 42.88 11.648 50.496a39.936 39.936 0 0 1-3.2 16.512 48.32 48.32 0 0 1-7.04 10.56 58.752 58.752 0 0 1-6.784 6.016c-2.432 1.728-5.056 1.216-15.808-2.88-7.04-2.752-17.92-7.296-35.52-15.296l-5.12-16.128c-2.752-8.896-12.032-38.144-20.608-65.024-11.456-35.648-15.68-51.2-15.616-57.344 0-5.568 1.344-11.264 3.904-16.576a46.912 46.912 0 0 1 8.704-12.288c2.688-2.304 18.56-13.184 65.792-44.224l-5.504-1.856a13151.36 13151.36 0 0 1-50.496-17.408 914.56 914.56 0 0 0-46.976-15.488c-1.28 0-5.184 12.48-10.624 34.368a370.048 370.048 0 0 1-13.312 44.416 69.76 69.76 0 0 1-31.424 31.36c-4.992 2.368-12.48 5.12-16.64 6.016-4.032 0.96-12.16 1.728-17.856 1.728a34.56 34.56 0 0 1-10.368-0.768c0-0.448 9.792-38.784 21.76-85.184 11.904-46.464 23.04-87.296 24.64-90.88a58.24 58.24 0 0 1 7.104-11.328 50.24 50.24 0 0 1 13.184-9.28 36.608 36.608 0 0 1 18.56-4.48c7.04 0 17.984 2.624 41.6 9.856 17.6 5.44 33.024 9.984 34.304 10.112 1.6 0.192 13.12-30.592 74.24-205.056l8.32-8a141.44 141.44 0 0 0 14.08-16c3.136-4.48 8.064-13.184 11.008-19.456 2.88-6.208 5.76-13.632 6.336-16.512 0.512-2.88 0.64-5.248 0.192-5.248a29.312 29.312 0 0 0-5.184 6.848c-2.432 3.776-7.808 10.368-12.096 14.72a71.488 71.488 0 0 1-15.168 11.52 222.4 222.4 0 0 1-15.808 6.912c-4.608 1.792-14.08 5.824-21.248 9.088-7.04 3.2-13.248 5.76-13.696 5.76-0.448 0-11.136 4.48-23.68 9.792l-33.728 14.528a46.848 46.848 0 0 1-20.352 4.8 50.432 50.432 0 0 1-14.976-2.112 50.88 50.88 0 0 1-11.2-7.04 44.992 44.992 0 0 1-9.792-13.632 28.736 28.736 0 0 1-3.008-18.368c0.832-8 2.368-11.584 8.384-20.224l25.472-36.352 63.744-91.264-6.656-29.44z" fill="#FF6B6B" p-id="5308"></path><path d="M124.8 782.528a25.6 25.6 0 0 1 12.928-11.84c7.68-3.968 10.24-4.48 17.28-3.648 6.848 0.832 12.48 3.584 30.848 15.296 12.352 7.872 29.568 18.176 38.208 22.912 8.704 4.736 24.832 12.8 35.84 17.792 10.88 5.12 30.08 12.928 42.368 17.344 12.352 4.48 30.336 10.24 39.936 12.928 9.6 2.624 26.432 6.72 37.44 9.088 10.944 2.368 30.08 5.76 42.368 7.552 15.168 2.176 35.712 3.52 63.232 4.16 25.856 0.576 48.96 0.192 63.232-1.024 12.352-1.024 33.28-3.712 46.528-5.888 13.312-2.176 34.624-6.592 47.424-9.792a638.528 638.528 0 0 0 76.544-24.96 632.064 632.064 0 0 0 102.272-54.208c8.704-5.632 18.432-10.688 21.632-11.2a39.68 39.68 0 0 1 12.928 0.832c3.84 0.96 9.792 4.096 13.12 6.976 3.392 2.88 7.104 7.616 8.32 10.496 1.28 2.88 2.24 8.512 2.24 12.544a34.88 34.88 0 0 1-3.072 13.312c-1.792 3.456-9.792 11.648-18.752 19.072-8.576 7.104-20.48 16.64-26.432 21.12a615.68 615.68 0 0 1-28.224 19.52c-9.6 6.272-27.584 16.896-39.936 23.68a569.792 569.792 0 0 1-47.424 22.656 702.08 702.08 0 0 1-45.76 16.768c-11.392 3.648-28.672 8.512-38.272 10.88a646.272 646.272 0 0 1-86.464 13.76c-14.464 1.28-35.84 1.664-59.904 1.088a559.808 559.808 0 0 1-59.904-4.224 748.736 748.736 0 0 1-34.88-5.76 597.376 597.376 0 0 1-95.68-28.16 606.592 606.592 0 0 1-81.536-40.448c-11.84-7.296-29.824-19.264-39.872-26.688a744.96 744.96 0 0 1-32.896-25.728c-9.472-8.064-15.36-14.4-17.088-18.368a41.152 41.152 0 0 1-2.56-13.312c0-4.48 1.536-10.048 3.968-14.528z" fill="#FF6B6B" p-id="5309"></path></svg>