<svg width="512" height="512" viewBox="0 0 30 24" xmlns="http://www.w3.org/2000/svg">
  <path d="M25.3232 0.621969C21.7649 -0.556649 18.7046 1.94361 17.9913 4.23192C17.9913 4.23192 15.4238 12.4771 14.3296 15.9181C13.8075 17.5586 12.5134 20.2449 10.077 20.2449C8.09191 20.2449 7.07182 18.3822 6.64104 17.2725L3.68243 9.38406C3.33953 8.55351 3.69794 6.89587 5.07299 6.39961C6.5411 5.87233 7.48537 7.10092 7.73005 7.75226L11.4158 17.195C12.2946 16.0629 12.8529 14.2209 13.2165 12.9165L10.7955 6.56158C9.64789 3.59608 6.61347 2.2486 3.80133 3.2842C1.52336 4.12336 -0.668458 6.99753 0.523945 10.6092L3.57732 18.4632C4.04084 19.6539 5.87253 23.5413 10.0115 23.5413C14.9792 23.5413 16.8437 19.3058 17.8775 15.9578C18.3945 14.2829 21.2307 5.22788 21.2307 5.22788C21.6426 3.87523 23.3174 3.4858 24.3634 3.82698C25.1009 4.0665 26.4346 5.08486 26.0038 6.66324C25.9228 6.95101 23.6621 14.2364 22.8281 16.4523C22.3921 17.6085 21.2876 20.1191 18.7736 19.7693C18.0068 21.4666 17.3709 22.4522 16.4077 23.3379C19.5438 24.8233 24.1153 23.3276 26.04 17.512C26.7551 15.3495 29.2657 7.55238 29.2657 7.55238C29.9946 5.15723 28.6936 1.73683 25.3232 0.621969Z" fill="white"/>
  <path d="M11.4157 17.1933C12.2945 16.0612 12.8528 14.2192 13.2164 12.9148L10.8471 6.69775C9.82356 7.08718 8.80519 7.49212 7.79199 7.90739L11.4157 17.1933Z" fill="white"/>
  <path d="M24.8838 10.2407C24.5702 11.1884 23.0245 15.9219 22.8247 16.4526C22.3887 17.6088 21.2842 20.1194 18.7701 19.7696C18.0034 21.4669 17.3675 22.4525 16.4043 23.3382C19.5404 24.8235 24.1118 23.3279 26.0366 17.5123C26.214 16.9747 26.5035 16.0873 26.8378 15.0586L24.8838 10.2407Z" fill="white"/>
</svg>
